# xmcd
#
# Track frame offsets: 
#        150
#        14886
#        29209
#        45051
#        63894
#        81618
#        97851
#        112799
#        128154
#        130200
#        145743
#        161999
#
# Disc length: 2429 seconds
#
# Revision: 1
# Processed by: cddbd v1.5.2PL0 Copyright (c) Steve Scherf et al.
# Submitted via: ExactAudioCopy v0.90b4
#
DISCID=a1097b0c
DTITLE=Dean Brody - Dirt
DYEAR=2012
DGENRE=Country
TTITLE0=Dirt
TTITLE1=It's Friday (feat. Great Big Sea)
TTITLE2=Underneath the Apple Trees
TTITLE3=Rural Route #3
TTITLE4=Canadian Girls
TTITLE5=Flowers in Her Hands
TTITLE6=The Sleeping Bag Song
TTITLE7=That's Your Cousin
TTITLE8=Bob Marley Prelude
TTITLE9=Bob Marley
TTITLE10=Losing My Balance
TTITLE11=Nowhere USA
EXTD=
EXTT0=
EXTT1=
EXTT2=
EXTT3=
EXTT4=
EXTT5=
EXTT6=
EXTT7=
EXTT8=
EXTT9=
EXTT10=
EXTT11=
PLAYORDER=
